<?xml version="1.0" encoding="utf-8"?>
<!-- Generator: Adobe Illustrator 17.1.0, SVG Export Plug-In . SVG Version: 6.00 Build 0)  -->
<!DOCTYPE svg PUBLIC "-//W3C//DTD SVG 1.1//EN" "http://www.w3.org/Graphics/SVG/1.1/DTD/svg11.dtd">
<svg version="1.1" id="Layer_1" xmlns="http://www.w3.org/2000/svg" xmlns:xlink="http://www.w3.org/1999/xlink" x="0px" y="0px"
	 viewBox="0 0 7 14" enable-background="new 0 0 7 14" xml:space="preserve">
<path fill="#C7C6C6" d="M5.112,2.559c-0.312,0-0.505,0.047-0.579,0.144C4.459,2.8,4.423,2.999,4.423,3.302v0.776h1.972
	c0.083,0,0.168,0.043,0.256,0.126C6.711,4.262,6.739,4.349,6.739,4.46L6.59,6.272c0,0.094-0.033,0.17-0.098,0.227
	c-0.065,0.054-0.144,0.083-0.24,0.083h-1.83v6.933c0,0.097-0.034,0.177-0.101,0.245c-0.069,0.069-0.15,0.101-0.245,0.101H1.795
	c-0.094,0-0.177-0.033-0.244-0.101s-0.101-0.148-0.101-0.245V6.582H0.345c-0.094,0-0.177-0.032-0.244-0.101
	C0.034,6.413,0,6.33,0,6.236V4.442c0-0.094,0.034-0.18,0.101-0.253c0.067-0.076,0.15-0.112,0.244-0.112h1.106V3.176
	C1.451,1.065,2.53,0.007,4.688,0c0.725,0,1.409,0.094,2.051,0.274c0.195,0.061,0.282,0.188,0.256,0.382L6.758,2.414
	c-0.023,0.097-0.07,0.173-0.141,0.231C6.523,2.707,6.429,2.721,6.343,2.699C6.135,2.652,5.922,2.616,5.7,2.591
	C5.48,2.569,5.283,2.559,5.112,2.559z"/>
</svg>
