<?xml version="1.0" encoding="utf-8"?>
<!-- Generator: Adobe Illustrator 17.1.0, SVG Export Plug-In . SVG Version: 6.00 Build 0)  -->
<!DOCTYPE svg PUBLIC "-//W3C//DTD SVG 1.1//EN" "http://www.w3.org/Graphics/SVG/1.1/DTD/svg11.dtd">
<svg version="1.1" id="Layer_1" xmlns="http://www.w3.org/2000/svg" xmlns:xlink="http://www.w3.org/1999/xlink" x="0px" y="0px"
	 viewBox="0 0 12 12" enable-background="new 0 0 12 12" xml:space="preserve">
<path fill="#C6C6C6" d="M0.637,2.993c0,1.018,0.334,1.753,0.993,2.184c0.539,0.354,1.165,0.408,1.49,0.408
	c0.079,0,0.143-0.003,0.187-0.006c0,0-0.103,0.683,0.395,1.36H3.679C2.816,6.938,0,7.123,0,9.479c0,2.398,2.586,2.519,3.104,2.519
	c0.041,0,0.064,0,0.064,0C3.174,11.998,3.211,12,3.275,12c0.332,0,1.193-0.043,1.992-0.439c1.037-0.513,1.563-1.403,1.563-2.648
	c0-1.204-0.801-1.92-1.386-2.444C5.087,6.151,4.779,5.875,4.779,5.607c0-0.273,0.225-0.478,0.51-0.737
	C5.75,4.45,6.185,3.852,6.185,2.722c0-0.994-0.127-1.661-0.906-2.083C5.36,0.596,5.647,0.564,5.79,0.545
	C6.212,0.486,6.83,0.42,6.83,0.068V0H3.751C3.72,0,0.637,0.117,0.637,2.993z M5.607,9.137c0.059,0.959-0.747,1.668-1.956,1.757
	c-1.229,0.092-2.241-0.471-2.299-1.43c-0.028-0.46,0.171-0.912,0.559-1.271C2.306,7.83,2.848,7.605,3.437,7.56
	c0.07-0.005,0.138-0.007,0.207-0.007C4.782,7.553,5.552,8.235,5.607,9.137z M4.804,2.336c0.302,1.081-0.155,2.213-0.881,2.421
	C3.84,4.782,3.753,4.793,3.666,4.793C3,4.793,2.34,4.108,2.096,3.162c-0.137-0.531-0.127-0.994,0.03-1.441
	c0.154-0.439,0.43-0.736,0.779-0.835C2.988,0.863,3.076,0.85,3.162,0.85C3.966,0.85,4.483,1.189,4.804,2.336z M9.992,4.692V2.646
	H8.719v2.046H6.711v1.295h2.008v2.046h1.272V5.987H12V4.692H9.992z"/>
</svg>
