<?xml version="1.0" encoding="utf-8"?>
<!-- Generator: Adobe Illustrator 17.1.0, SVG Export Plug-In . SVG Version: 6.00 Build 0)  -->
<!DOCTYPE svg PUBLIC "-//W3C//DTD SVG 1.1//EN" "http://www.w3.org/Graphics/SVG/1.1/DTD/svg11.dtd">
<svg version="1.1" id="Layer_1" xmlns="http://www.w3.org/2000/svg" xmlns:xlink="http://www.w3.org/1999/xlink" x="0px" y="0px"
	 viewBox="0 0 12 14" enable-background="new 0 0 12 14" xml:space="preserve">
<path fill="#C7C6C6" d="M0.637,3.939c0,1,0.334,1.722,0.993,2.145c0.539,0.348,1.165,0.401,1.49,0.401
	c0.079,0,0.143-0.003,0.187-0.006c0,0-0.103,0.671,0.395,1.336H3.679C2.816,7.814,0,7.995,0,10.309c0,2.355,2.586,2.474,3.104,2.474
	c0.041,0,0.064,0,0.064,0c0.006,0,0.043,0.002,0.107,0.002c0.332,0,1.193-0.042,1.992-0.431C6.304,11.85,6.83,10.976,6.83,9.753
	c0-1.182-0.801-1.886-1.386-2.4C5.087,7.041,4.779,6.77,4.779,6.507c0-0.268,0.225-0.469,0.51-0.724c0.461-0.413,0.896-1,0.896-2.11
	c0-0.976-0.127-1.631-0.906-2.046C5.36,1.585,5.647,1.554,5.79,1.535c0.422-0.058,1.04-0.123,1.04-0.468V1H3.751
	C3.72,1,0.637,1.115,0.637,3.939z M5.607,9.973c0.059,0.942-0.747,1.638-1.956,1.726c-1.229,0.09-2.241-0.463-2.299-1.404
	C1.324,9.843,1.523,9.399,1.911,9.047c0.395-0.357,0.937-0.578,1.526-0.622C3.507,8.42,3.575,8.418,3.644,8.418
	C4.782,8.418,5.552,9.087,5.607,9.973z M4.804,3.294c0.302,1.062-0.155,2.173-0.881,2.378c-0.083,0.024-0.17,0.035-0.257,0.035
	c-0.666,0-1.326-0.673-1.57-1.602C1.959,3.584,1.969,3.129,2.126,2.69c0.154-0.431,0.43-0.723,0.779-0.82
	c0.083-0.022,0.171-0.035,0.257-0.035C3.966,1.835,4.483,2.168,4.804,3.294z M9.992,5.608V3.599H8.719v2.009H6.711V6.88h2.008v2.009
	h1.272V6.88H12V5.608H9.992z"/>
</svg>
