<?xml version="1.0" encoding="utf-8"?>
<!-- Generator: Adobe Illustrator 17.1.0, SVG Export Plug-In . SVG Version: 6.00 Build 0)  -->
<!DOCTYPE svg PUBLIC "-//W3C//DTD SVG 1.1//EN" "http://www.w3.org/Graphics/SVG/1.1/DTD/svg11.dtd">
<svg version="1.1" id="Layer_1" xmlns="http://www.w3.org/2000/svg" xmlns:xlink="http://www.w3.org/1999/xlink" x="0px" y="0px"
	 viewBox="0 0 12 12" enable-background="new 0 0 12 12" xml:space="preserve">
<g>
	<path fill="#C7C6C6" d="M2.717,1.301c0,0.718-0.523,1.301-1.384,1.301C0.523,2.601,0,2.019,0,1.301C0,0.565,0.54,0,1.366,0
		C2.194,0,2.7,0.565,2.717,1.301z M0.067,12V3.629h2.566V12H0.067z"/>
	<path fill="#C7C6C6" d="M4.168,6.3c0-1.045-0.033-1.917-0.067-2.671h2.228l0.118,1.165h0.051c0.337-0.548,1.165-1.353,2.549-1.353
		C10.734,3.441,12,4.588,12,7.052V12H9.434V7.361c0-1.079-0.371-1.815-1.299-1.815c-0.709,0-1.13,0.497-1.316,0.976
		c-0.068,0.171-0.085,0.411-0.085,0.65V12H4.168V6.3z"/>
</g>
</svg>
