<?xml version="1.0" encoding="utf-8"?>
<!-- Generator: Adobe Illustrator 17.1.0, SVG Export Plug-In . SVG Version: 6.00 Build 0)  -->
<!DOCTYPE svg PUBLIC "-//W3C//DTD SVG 1.1//EN" "http://www.w3.org/Graphics/SVG/1.1/DTD/svg11.dtd">
<svg version="1.1" id="Layer_1" xmlns="http://www.w3.org/2000/svg" xmlns:xlink="http://www.w3.org/1999/xlink" x="0px" y="0px"
	 viewBox="0 0 12 14" enable-background="new 0 0 12 14" xml:space="preserve">
<g>
	<path fill="#C7C6C6" d="M2.717,2.283c0,0.708-0.523,1.283-1.384,1.283C0.523,3.565,0,2.991,0,2.283C0,1.557,0.54,1,1.366,1
		C2.194,1,2.7,1.557,2.717,2.283z M0.067,12.832V4.578h2.566v8.254H0.067z"/>
	<path fill="#C7C6C6" d="M4.168,7.212c0-1.031-0.033-1.89-0.067-2.634h2.228l0.118,1.149h0.051c0.337-0.541,1.165-1.334,2.549-1.334
		C10.734,4.393,12,5.524,12,7.954v4.878H9.434V8.259c0-1.064-0.371-1.79-1.299-1.79c-0.709,0-1.13,0.49-1.316,0.962
		C6.751,7.6,6.734,7.836,6.734,8.072v4.76H4.168V7.212z"/>
</g>
</svg>
