<?xml version="1.0" encoding="utf-8"?>
<!-- Generator: Adobe Illustrator 17.1.0, SVG Export Plug-In . SVG Version: 6.00 Build 0)  -->
<!DOCTYPE svg PUBLIC "-//W3C//DTD SVG 1.1//EN" "http://www.w3.org/Graphics/SVG/1.1/DTD/svg11.dtd">
<svg version="1.1" id="Layer_1" xmlns="http://www.w3.org/2000/svg" xmlns:xlink="http://www.w3.org/1999/xlink" x="0px" y="0px"
	 viewBox="0 0 64 18" style="enable-background:new 0 0 64 18;" xml:space="preserve">
<style type="text/css">
	.st0{fill-rule:evenodd;clip-rule:evenodd;fill:#167DB0;}
	.st1{fill-rule:evenodd;clip-rule:evenodd;fill:#1C567E;}
</style>
<g>
	<path class="st0" d="M52.78,2.786c-1.691,0-3.027,0.451-4.049,0.656l-0.315,2.58c0.511-0.246,2.123-0.696,3.46-0.737
		c1.337-0.041,2.123,0.245,1.848,1.393c-3.971,0-6.646,0.819-7.196,3.4c-0.787,4.424,4.051,4.301,5.977,2.376l-0.236,1.065h3.539
		l1.534-7.045C57.97,3.482,55.257,2.745,52.78,2.786z M53.016,9.995c-0.196,0.942-0.943,1.352-1.847,1.393
		c-0.786,0.04-1.495-0.656-0.983-1.475c0.394-0.696,1.495-0.86,2.163-0.86c0.275,0,0.591,0,0.865,0
		C53.134,9.381,53.094,9.668,53.016,9.995z"/>
	<polygon class="st0" points="60.369,0 57.441,13.518 61.036,13.518 64,0 60.369,0 60.369,0 	"/>
	<path class="st0" d="M43.853,0.042h-6.581l-2.916,13.476h3.823l0.986-4.465h2.719c2.68,0,4.887-1.638,5.478-4.424
		C48.03,1.475,45.745,0.042,43.853,0.042z M43.735,4.629c-0.237,1.024-1.262,1.843-2.247,1.843h-1.773l0.789-3.686h1.892
		C43.381,2.786,43.972,3.605,43.735,4.629z"/>
	<path class="st1" d="M18.314,2.786c-1.67,0-2.991,0.451-3.962,0.656l-0.311,2.58c0.466-0.246,2.059-0.696,3.379-0.737
		c1.321-0.041,2.098,0.245,1.865,1.393c-3.923,0-6.564,0.819-7.108,3.4c-0.777,4.424,4.001,4.301,5.865,2.376l-0.233,1.065h3.535
		l1.515-7.045C23.48,3.482,20.76,2.745,18.314,2.786z M18.585,9.995c-0.194,0.942-0.971,1.352-1.864,1.393
		c-0.777,0.04-1.437-0.656-0.932-1.475c0.388-0.696,1.476-0.86,2.098-0.86c0.311,0,0.582,0,0.893,0
		C18.702,9.381,18.624,9.668,18.585,9.995z"/>
	<polygon class="st1" points="24.398,2.98 27.933,2.98 28.503,9.256 31.961,2.98 35.609,2.98 27.21,18 23.258,18 25.842,13.584 
		24.398,2.98 24.398,2.98 	"/>
	<path class="st1" d="M9.522,0.042H2.924L0,13.518h3.872l0.948-4.465h2.765c2.647,0,4.86-1.638,5.453-4.424
		C13.71,1.475,11.458,0.042,9.522,0.042z M9.404,4.629C9.167,5.653,8.179,6.472,7.191,6.472H5.374l0.83-3.686H8.1
		C9.048,2.786,9.68,3.605,9.404,4.629z"/>
</g>
</svg>
