<?xml version="1.0" encoding="utf-8"?>
<!-- Generator: Adobe Illustrator 17.1.0, SVG Export Plug-In . SVG Version: 6.00 Build 0)  -->
<!DOCTYPE svg PUBLIC "-//W3C//DTD SVG 1.1//EN" "http://www.w3.org/Graphics/SVG/1.1/DTD/svg11.dtd">
<svg version="1.1" id="Layer_1" xmlns="http://www.w3.org/2000/svg" xmlns:xlink="http://www.w3.org/1999/xlink" x="0px" y="0px"
	 viewBox="0 0 64 18" enable-background="new 0 0 64 18" xml:space="preserve">
<g>
	<path fill-rule="evenodd" clip-rule="evenodd" fill="#167DB0" d="M52.805,2.774c-1.691,0-3.027,0.449-4.049,0.653l-0.315,2.569
		c0.511-0.245,2.123-0.693,3.46-0.734c1.337-0.041,2.123,0.244,1.848,1.387c-3.971,0-6.646,0.816-7.196,3.386
		c-0.787,4.405,4.051,4.283,5.977,2.366l-0.236,1.061h3.539l1.534-7.016C57.996,3.467,55.283,2.734,52.805,2.774z M53.041,9.953
		c-0.196,0.938-0.943,1.346-1.847,1.387c-0.786,0.04-1.495-0.653-0.983-1.469c0.394-0.693,1.495-0.857,2.163-0.857
		c0.275,0,0.591,0,0.865,0C53.159,9.341,53.119,9.627,53.041,9.953z"/>
	<polygon fill-rule="evenodd" clip-rule="evenodd" fill="#167DB0" points="60.395,0 57.467,13.461 61.062,13.461 64.026,0 60.395,0 
		60.395,0 	"/>
	<path fill-rule="evenodd" clip-rule="evenodd" fill="#167DB0" d="M43.878,0.041h-6.581l-2.916,13.42h3.823l0.986-4.446h2.719
		c2.68,0,4.887-1.631,5.478-4.405C48.056,1.469,45.77,0.041,43.878,0.041z M43.761,4.61c-0.237,1.02-1.262,1.836-2.247,1.836h-1.773
		l0.789-3.671h1.892C43.406,2.774,43.997,3.59,43.761,4.61z"/>
	<path fill-rule="evenodd" clip-rule="evenodd" fill="#1C567E" d="M18.339,2.774c-1.67,0-2.991,0.449-3.962,0.653l-0.311,2.569
		c0.466-0.245,2.059-0.693,3.379-0.734c1.321-0.041,2.098,0.244,1.865,1.387c-3.923,0-6.564,0.816-7.108,3.386
		c-0.777,4.405,4.001,4.283,5.865,2.366l-0.233,1.061h3.535l1.515-7.016C23.505,3.467,20.786,2.734,18.339,2.774z M18.611,9.953
		c-0.194,0.938-0.971,1.346-1.864,1.387c-0.777,0.04-1.437-0.653-0.932-1.469c0.388-0.693,1.476-0.857,2.098-0.857
		c0.311,0,0.582,0,0.893,0C18.728,9.341,18.65,9.627,18.611,9.953z"/>
	<polygon fill-rule="evenodd" clip-rule="evenodd" fill="#1C567E" points="24.424,2.967 27.958,2.967 28.528,9.217 31.987,2.967 
		35.634,2.967 27.236,17.925 23.284,17.925 25.868,13.527 24.424,2.967 24.424,2.967 	"/>
	<path fill-rule="evenodd" clip-rule="evenodd" fill="#1C567E" d="M9.548,0.041H2.949l-2.924,13.42h3.872l0.948-4.446h2.765
		c2.647,0,4.86-1.631,5.453-4.405C13.736,1.469,11.484,0.041,9.548,0.041z M9.429,4.61C9.192,5.63,8.205,6.445,7.217,6.445H5.399
		l0.83-3.671h1.896C9.074,2.774,9.706,3.59,9.429,4.61z"/>
</g>
</svg>
