<?xml version="1.0" encoding="utf-8"?>
<!-- Generator: Adobe Illustrator 17.1.0, SVG Export Plug-In . SVG Version: 6.00 Build 0)  -->
<!DOCTYPE svg PUBLIC "-//W3C//DTD SVG 1.1//EN" "http://www.w3.org/Graphics/SVG/1.1/DTD/svg11.dtd">
<svg version="1.1" id="Layer_1" xmlns="http://www.w3.org/2000/svg" xmlns:xlink="http://www.w3.org/1999/xlink" x="0px" y="0px"
	 viewBox="0 0 64 18" enable-background="new 0 0 64 18" xml:space="preserve">
<g>
	<path fill-rule="evenodd" clip-rule="evenodd" fill="#167DB0" d="M52.78,2.875c-1.691,0-3.027,0.449-4.049,0.653l-0.315,2.569
		c0.511-0.245,2.123-0.693,3.46-0.734c1.337-0.041,2.123,0.244,1.848,1.387c-3.971,0-6.646,0.816-7.196,3.386
		c-0.787,4.405,4.051,4.283,5.977,2.366l-0.236,1.061h3.539l1.534-7.016C57.97,3.568,55.257,2.834,52.78,2.875z M53.016,10.054
		c-0.196,0.938-0.943,1.346-1.847,1.387c-0.786,0.04-1.495-0.653-0.983-1.469c0.394-0.693,1.495-0.857,2.163-0.857
		c0.275,0,0.591,0,0.865,0C53.134,9.442,53.094,9.728,53.016,10.054z"/>
	<polygon fill-rule="evenodd" clip-rule="evenodd" fill="#167DB0" points="60.369,0.1 57.441,13.562 61.036,13.562 64,0.1 
		60.369,0.1 60.369,0.1 	"/>
	<path fill-rule="evenodd" clip-rule="evenodd" fill="#167DB0" d="M43.853,0.142h-6.581l-2.916,13.42h3.823l0.986-4.446h2.719
		c2.68,0,4.887-1.631,5.478-4.405C48.03,1.569,45.745,0.142,43.853,0.142z M43.735,4.71c-0.237,1.02-1.262,1.836-2.247,1.836h-1.773
		l0.789-3.671h1.892C43.381,2.875,43.972,3.691,43.735,4.71z"/>
	<path fill-rule="evenodd" clip-rule="evenodd" fill="#1C567E" d="M18.314,2.875c-1.67,0-2.991,0.449-3.962,0.653l-0.311,2.569
		c0.466-0.245,2.059-0.693,3.379-0.734c1.321-0.041,2.098,0.244,1.865,1.387c-3.923,0-6.564,0.816-7.108,3.386
		c-0.777,4.405,4.001,4.283,5.865,2.366l-0.233,1.061h3.535l1.515-7.016C23.48,3.568,20.76,2.834,18.314,2.875z M18.585,10.054
		c-0.194,0.938-0.971,1.346-1.864,1.387c-0.777,0.04-1.437-0.653-0.932-1.469c0.388-0.693,1.476-0.857,2.098-0.857
		c0.311,0,0.582,0,0.893,0C18.702,9.442,18.624,9.728,18.585,10.054z"/>
	<polygon fill-rule="evenodd" clip-rule="evenodd" fill="#1C567E" points="24.398,3.068 27.933,3.068 28.503,9.317 31.961,3.068 
		35.609,3.068 27.21,18.025 23.258,18.025 25.842,13.628 24.398,3.068 24.398,3.068 	"/>
	<path fill-rule="evenodd" clip-rule="evenodd" fill="#1C567E" d="M9.522,0.142H2.924L0,13.562h3.872l0.948-4.446h2.765
		c2.647,0,4.86-1.631,5.453-4.405C13.71,1.569,11.458,0.142,9.522,0.142z M9.404,4.71C9.167,5.73,8.179,6.546,7.191,6.546H5.374
		l0.83-3.671H8.1C9.048,2.875,9.68,3.691,9.404,4.71z"/>
</g>
</svg>
