<?xml version="1.0" encoding="utf-8"?>
<!-- Generator: Adobe Illustrator 17.1.0, SVG Export Plug-In . SVG Version: 6.00 Build 0)  -->
<!DOCTYPE svg PUBLIC "-//W3C//DTD SVG 1.1//EN" "http://www.w3.org/Graphics/SVG/1.1/DTD/svg11.dtd">
<svg version="1.1" id="Layer_1" xmlns="http://www.w3.org/2000/svg" xmlns:xlink="http://www.w3.org/1999/xlink" x="0px" y="0px"
	 viewBox="0 0 6 14" enable-background="new 0 0 6 14" xml:space="preserve">
<path fill="#717070" d="M5.9,0.989C5.851,0.914,5.795,0.84,5.731,0.771C5.669,0.699,5.604,0.628,5.542,0.557
	C5.48,0.485,5.432,0.431,5.399,0.398C5.358,0.356,5.31,0.315,5.256,0.273C5.199,0.231,5.155,0.186,5.124,0.137
	C4.86,0.038,4.585-0.006,4.302,0.001c-0.285,0.009-0.57,0.054-0.855,0.134C3.164,0.216,2.896,0.329,2.642,0.473
	C2.386,0.619,2.164,0.78,1.974,0.96c-0.17,0.16-0.325,0.359-0.467,0.593C1.363,1.789,1.23,2.041,1.111,2.31
	C0.989,2.576,0.881,2.846,0.784,3.117C0.687,3.389,0.609,3.633,0.55,3.852c-0.172,0.574-0.306,1.17-0.4,1.789
	C0.053,6.263,0.005,6.88,0,7.496c-0.002,0.618,0.051,1.231,0.164,1.841c0.112,0.61,0.293,1.199,0.547,1.763
	c0.138,0.341,0.286,0.676,0.442,1.01c0.157,0.332,0.367,0.634,0.634,0.906c0.129,0.132,0.306,0.267,0.531,0.405
	c0.225,0.138,0.46,0.258,0.708,0.358c0.247,0.099,0.497,0.167,0.747,0.202c0.25,0.035,0.472,0.021,0.667-0.047
	c0.073-0.029,0.157-0.064,0.249-0.107c0.095-0.044,0.19-0.093,0.285-0.15c0.094-0.054,0.18-0.112,0.262-0.169
	c0.08-0.055,0.149-0.11,0.204-0.162c0.059-0.056,0.097-0.097,0.112-0.123c0.033-0.099,0.028-0.225-0.016-0.379
	c-0.047-0.152-0.078-0.272-0.098-0.358c-0.025-0.08-0.063-0.244-0.117-0.49c-0.053-0.242-0.11-0.492-0.175-0.745
	C5.081,11,5.019,10.766,4.959,10.55c-0.06-0.215-0.107-0.339-0.14-0.372c-0.09-0.092-0.242-0.139-0.457-0.143
	c-0.217-0.001-0.442,0.006-0.676,0.029c-0.235,0.022-0.458,0.036-0.667,0.039c-0.208,0.004-0.35-0.033-0.426-0.11
	C2.516,9.914,2.462,9.801,2.432,9.649C2.4,9.5,2.373,9.377,2.347,9.284C2.145,8.506,2.051,7.769,2.063,7.077
	c0.011-0.692,0.128-1.418,0.35-2.178c0.026-0.09,0.06-0.209,0.107-0.361c0.045-0.15,0.102-0.258,0.172-0.324
	c0.074-0.07,0.196-0.103,0.359-0.095C3.215,4.128,3.394,4.14,3.585,4.152c0.189,0.014,0.378,0.012,0.567-0.007
	c0.187-0.017,0.347-0.087,0.474-0.207C4.662,3.904,4.73,3.794,4.83,3.606c0.099-0.19,0.207-0.397,0.32-0.622
	C5.265,2.76,5.373,2.541,5.48,2.325C5.587,2.11,5.66,1.964,5.704,1.884c0.021-0.046,0.051-0.102,0.09-0.166
	C5.83,1.651,5.868,1.585,5.903,1.521C5.934,1.457,5.961,1.393,5.98,1.329c0.017-0.062,0.023-0.118,0.018-0.165
	C5.982,1.122,5.948,1.064,5.9,0.989z"/>
</svg>
