<?xml version="1.0" encoding="utf-8"?>
<!-- Generator: Adobe Illustrator 17.1.0, SVG Export Plug-In . SVG Version: 6.00 Build 0)  -->
<!DOCTYPE svg PUBLIC "-//W3C//DTD SVG 1.1//EN" "http://www.w3.org/Graphics/SVG/1.1/DTD/svg11.dtd">
<svg version="1.1" id="Layer_1" xmlns="http://www.w3.org/2000/svg" xmlns:xlink="http://www.w3.org/1999/xlink" x="0px" y="0px"
	 viewBox="0 0 6 14" enable-background="new 0 0 6 14" xml:space="preserve">
<path fill="#717070" d="M5.793,0.989C5.745,0.914,5.69,0.84,5.627,0.771C5.566,0.699,5.502,0.628,5.442,0.557
	C5.381,0.485,5.333,0.431,5.301,0.398c-0.04-0.042-0.087-0.082-0.14-0.125c-0.056-0.042-0.099-0.087-0.13-0.135
	c-0.259-0.099-0.53-0.143-0.807-0.137c-0.28,0.009-0.56,0.054-0.839,0.134c-0.278,0.081-0.542,0.194-0.79,0.339
	C2.343,0.619,2.125,0.78,1.938,0.96C1.772,1.12,1.619,1.319,1.479,1.553C1.339,1.789,1.208,2.041,1.09,2.31
	c-0.12,0.267-0.225,0.536-0.32,0.807C0.675,3.389,0.598,3.633,0.54,3.852c-0.169,0.574-0.3,1.17-0.393,1.789
	C0.052,6.263,0.005,6.88,0,7.496c-0.002,0.618,0.051,1.231,0.161,1.841c0.11,0.61,0.288,1.199,0.537,1.763
	c0.136,0.341,0.281,0.676,0.434,1.01c0.154,0.332,0.361,0.634,0.622,0.906c0.127,0.132,0.301,0.267,0.521,0.405
	c0.22,0.138,0.452,0.258,0.696,0.358c0.243,0.099,0.488,0.167,0.733,0.202c0.245,0.035,0.464,0.021,0.655-0.047
	c0.072-0.029,0.154-0.064,0.245-0.107c0.094-0.044,0.187-0.093,0.28-0.15c0.092-0.054,0.177-0.112,0.257-0.169
	c0.079-0.055,0.146-0.11,0.2-0.162c0.058-0.056,0.095-0.097,0.11-0.123c0.033-0.099,0.028-0.225-0.016-0.379
	c-0.046-0.152-0.077-0.272-0.096-0.358c-0.025-0.08-0.062-0.244-0.114-0.49c-0.052-0.242-0.108-0.492-0.172-0.745
	C4.988,11,4.928,10.766,4.869,10.55c-0.059-0.215-0.105-0.339-0.137-0.372c-0.088-0.092-0.238-0.139-0.449-0.143
	c-0.213-0.001-0.434,0.006-0.664,0.029c-0.231,0.022-0.449,0.036-0.655,0.039C2.76,10.108,2.62,10.07,2.546,9.993
	C2.47,9.914,2.418,9.801,2.388,9.65C2.357,9.5,2.33,9.377,2.305,9.284c-0.199-0.777-0.291-1.514-0.28-2.207
	c0.011-0.692,0.126-1.418,0.344-2.178c0.025-0.09,0.059-0.209,0.105-0.361c0.044-0.15,0.1-0.258,0.169-0.324
	c0.073-0.07,0.193-0.103,0.353-0.095C3.157,4.128,3.332,4.14,3.52,4.152C3.705,4.166,3.89,4.164,4.077,4.145
	c0.184-0.017,0.341-0.087,0.465-0.207c0.035-0.034,0.102-0.144,0.2-0.333c0.098-0.19,0.203-0.397,0.315-0.622
	C5.17,2.76,5.276,2.541,5.38,2.325C5.486,2.11,5.557,1.964,5.6,1.884c0.02-0.046,0.05-0.102,0.088-0.166
	c0.036-0.067,0.073-0.132,0.107-0.197c0.031-0.064,0.058-0.127,0.076-0.191c0.017-0.062,0.023-0.118,0.018-0.165
	C5.873,1.122,5.84,1.064,5.793,0.989z"/>
</svg>
