<?xml version="1.0" encoding="utf-8"?>
<!-- Generator: Adobe Illustrator 17.1.0, SVG Export Plug-In . SVG Version: 6.00 Build 0)  -->
<!DOCTYPE svg PUBLIC "-//W3C//DTD SVG 1.1//EN" "http://www.w3.org/Graphics/SVG/1.1/DTD/svg11.dtd">
<svg version="1.1" id="Layer_1" xmlns="http://www.w3.org/2000/svg" xmlns:xlink="http://www.w3.org/1999/xlink" x="0px" y="0px"
	 viewBox="0 0 90 99" style="enable-background:new 0 0 90 99;" xml:space="preserve">
<style type="text/css">
	.st0{fill:#00A19A;}
	.st1{fill:#FFFFFF;}
</style>
<path class="st0" d="M45,99c-1.675,0-4.167-0.283-6.526-1.635L6.526,79.046C2.744,76.877,0,72.155,0,67.818V31.182
	c0-4.336,2.744-9.058,6.526-11.227L38.473,1.635C40.833,0.283,43.325,0,45,0s4.167,0.283,6.526,1.635l31.947,18.319
	C87.254,22.122,90,26.844,90,31.182v36.637c0,4.338-2.746,9.06-6.528,11.227L51.527,97.365C49.167,98.717,46.675,99,45,99z"/>
<path class="st1" d="M61.245,61.641c0.246,0.254,0.373,0.575,0.373,0.982c0,0.22-0.127,0.516-0.373,0.888
	c-0.246,0.372-0.56,0.745-0.934,1.108c-0.374,0.364-0.747,0.677-1.112,0.931c-0.373,0.262-0.663,0.389-0.892,0.389
	c-0.399,0-0.722-0.135-0.976-0.398l-7.472-7.421c-1.138,0.728-2.353,1.295-3.643,1.684c-1.291,0.398-2.616,0.592-3.974,0.592
	c-1.902,0-3.686-0.355-5.367-1.075s-3.15-1.709-4.424-2.97c-1.273-1.252-2.267-2.716-2.989-4.392
	c-0.722-1.675-1.078-3.461-1.078-5.356c0-1.887,0.357-3.672,1.078-5.348c0.722-1.675,1.716-3.139,2.989-4.4
	c1.274-1.252,2.743-2.251,4.416-2.97c1.673-0.728,3.464-1.092,5.375-1.092c1.902,0,3.686,0.364,5.358,1.092
	c1.673,0.719,3.142,1.718,4.416,2.97c1.274,1.261,2.267,2.725,2.989,4.4c0.722,1.675,1.079,3.461,1.079,5.348
	c0,1.362-0.195,2.682-0.594,3.977c-0.391,1.295-0.96,2.496-1.69,3.613L61.245,61.641z M33.918,46.604
	c0,1.168,0.221,2.251,0.663,3.249c0.45,0.998,1.044,1.87,1.792,2.615c0.747,0.736,1.63,1.328,2.641,1.76
	c1.019,0.44,2.089,0.652,3.227,0.652c1.138,0,2.208-0.212,3.218-0.652c1.002-0.432,1.885-1.024,2.633-1.76
	c0.747-0.745,1.342-1.616,1.792-2.615c0.442-0.998,0.663-2.082,0.663-3.249c0-1.134-0.221-2.2-0.663-3.199
	c-0.45-1.007-1.044-1.887-1.792-2.64c-0.747-0.753-1.63-1.345-2.633-1.777c-1.01-0.44-2.08-0.66-3.218-0.66
	c-1.138,0-2.208,0.22-3.227,0.66c-1.01,0.432-1.893,1.024-2.641,1.777c-0.747,0.753-1.342,1.633-1.792,2.64
	C34.139,44.404,33.918,45.471,33.918,46.604z M42.24,41.384c0.28,0,0.518,0.102,0.722,0.296c0.195,0.203,0.297,0.457,0.297,0.762
	c0,0.271-0.102,0.516-0.297,0.711c-0.204,0.203-0.441,0.305-0.722,0.305c-0.875,0-1.622,0.305-2.233,0.914
	c-0.62,0.609-0.926,1.354-0.926,2.234c0,0.279-0.102,0.516-0.306,0.719c-0.204,0.203-0.441,0.296-0.713,0.296
	c-0.323,0-0.578-0.093-0.773-0.296c-0.195-0.203-0.289-0.44-0.289-0.719c0-0.702,0.127-1.371,0.399-2.005
	c0.272-0.643,0.646-1.202,1.13-1.684c0.476-0.482,1.027-0.863,1.664-1.125C40.822,41.519,41.51,41.384,42.24,41.384z"/>
</svg>
