<?xml version="1.0" encoding="utf-8"?>
<!-- Generator: Adobe Illustrator 17.1.0, SVG Export Plug-In . SVG Version: 6.00 Build 0)  -->
<!DOCTYPE svg PUBLIC "-//W3C//DTD SVG 1.1//EN" "http://www.w3.org/Graphics/SVG/1.1/DTD/svg11.dtd">
<svg version="1.1" id="Layer_1" xmlns="http://www.w3.org/2000/svg" xmlns:xlink="http://www.w3.org/1999/xlink" x="0px" y="0px"
	 viewBox="0 0 15 14" enable-background="new 0 0 15 14" xml:space="preserve">
<path fill="#11BBE6" d="M15,2.348c-0.552,0.244-1.145,0.41-1.767,0.484c0.636-0.38,1.124-0.983,1.354-1.703
	c-0.595,0.353-1.253,0.609-1.955,0.747c-0.562-0.599-1.362-0.971-2.246-0.971c-1.699,0-3.077,1.377-3.077,3.077
	c0,0.242,0.027,0.476,0.079,0.702C4.829,4.555,2.561,3.329,1.044,1.468C0.779,1.923,0.627,2.452,0.627,3.015
	c0,1.067,0.543,2.009,1.369,2.561C1.492,5.561,1.017,5.423,0.602,5.193c0,0.012,0,0.025,0,0.037c0,1.492,1.061,2.735,2.469,3.018
	c-0.258,0.07-0.53,0.109-0.811,0.109c-0.198,0-0.391-0.019-0.579-0.057c0.392,1.223,1.528,2.113,2.876,2.138
	c-1.053,0.825-2.38,1.317-3.823,1.317c-0.248,0-0.493-0.014-0.733-0.043c1.362,0.874,2.979,1.383,4.717,1.383
	c5.66,0,8.756-4.69,8.756-8.757c0-0.133-0.003-0.265-0.009-0.398C14.067,3.507,14.587,2.965,15,2.348z"/>
</svg>
