<?xml version="1.0" encoding="utf-8"?>
<!-- Generator: Adobe Illustrator 17.1.0, SVG Export Plug-In . SVG Version: 6.00 Build 0)  -->
<!DOCTYPE svg PUBLIC "-//W3C//DTD SVG 1.1//EN" "http://www.w3.org/Graphics/SVG/1.1/DTD/svg11.dtd">
<svg version="1.1" id="Layer_1" xmlns="http://www.w3.org/2000/svg" xmlns:xlink="http://www.w3.org/1999/xlink" x="0px" y="0px"
	 viewBox="0 0 12 12" enable-background="new 0 0 12 12" xml:space="preserve">
<path fill="#0DBAE6" d="M11.812,1.137c-0.434,0.192-0.902,0.322-1.392,0.381c0.501-0.299,0.885-0.774,1.066-1.341
	c-0.469,0.278-0.987,0.479-1.539,0.588C9.505,0.294,8.875,0,8.178,0C6.84,0,5.754,1.085,5.754,2.422c0,0.19,0.022,0.374,0.062,0.553
	c-2.014-0.102-3.8-1.066-4.995-2.532C0.614,0.801,0.494,1.218,0.494,1.662c0,0.84,0.428,1.582,1.078,2.017
	c-0.396-0.011-0.77-0.121-1.098-0.302c0,0.01,0,0.02,0,0.029c0,1.175,0.836,2.154,1.944,2.377C2.214,5.838,2.001,5.868,1.78,5.868
	c-0.156,0-0.308-0.015-0.456-0.045c0.309,0.963,1.203,1.664,2.265,1.684c-0.83,0.65-1.874,1.037-3.01,1.037
	c-0.195,0-0.388-0.01-0.578-0.034C1.072,9.199,2.346,9.6,3.714,9.6c4.458,0,6.895-3.693,6.895-6.896
	c0-0.105-0.002-0.209-0.007-0.314C11.077,2.05,11.487,1.622,11.812,1.137z"/>
</svg>
