<?xml version="1.0" encoding="utf-8"?>
<!-- Generator: Adobe Illustrator 17.1.0, SVG Export Plug-In . SVG Version: 6.00 Build 0)  -->
<!DOCTYPE svg PUBLIC "-//W3C//DTD SVG 1.1//EN" "http://www.w3.org/Graphics/SVG/1.1/DTD/svg11.dtd">
<svg version="1.1" id="Layer_1" xmlns="http://www.w3.org/2000/svg" xmlns:xlink="http://www.w3.org/1999/xlink" x="0px" y="0px"
	 viewBox="0 0 90 99" style="enable-background:new 0 0 90 99;" xml:space="preserve">
<style type="text/css">
	.st0{fill:#00A19A;}
	.st1{fill:#FFFFFF;}
</style>
<path class="st0" d="M45,99c-1.675,0-4.167-0.283-6.526-1.635L6.526,79.046C2.744,76.877,0,72.155,0,67.818V31.182
	c0-4.336,2.744-9.058,6.526-11.227L38.473,1.635C40.833,0.283,43.325,0,45,0s4.167,0.283,6.526,1.635l31.947,18.319
	C87.254,22.122,90,26.844,90,31.182v36.637c0,4.338-2.746,9.06-6.528,11.227L51.527,97.365C49.167,98.717,46.675,99,45,99z"/>
<g>
	<path class="st1" d="M47.326,51.327c-2.996,2.988-6.468,5.842-7.84,4.475c-1.963-1.959-3.175-3.662-7.505-0.194
		c-4.33,3.468-1.003,5.779,0.899,7.675c2.197,2.189,10.381,0.115,18.47-7.945c8.089-8.061,10.17-16.216,7.973-18.405
		c-1.905-1.896-4.224-5.208-7.702-0.894c-3.481,4.312-1.771,5.52,0.195,7.478C53.186,44.882,50.322,48.341,47.326,51.327z"/>
</g>
</svg>
