<?xml version="1.0" encoding="utf-8"?>
<!-- Generator: Adobe Illustrator 17.1.0, SVG Export Plug-In . SVG Version: 6.00 Build 0)  -->
<!DOCTYPE svg PUBLIC "-//W3C//DTD SVG 1.1//EN" "http://www.w3.org/Graphics/SVG/1.1/DTD/svg11.dtd">
<svg version="1.1" id="Layer_1" xmlns="http://www.w3.org/2000/svg" xmlns:xlink="http://www.w3.org/1999/xlink" x="0px" y="0px"
	 viewBox="0 0 90 99" style="enable-background:new 0 0 90 99;" xml:space="preserve">
<style type="text/css">
	.st0{fill:#8B5AA0;}
	.st1{fill:#FFFFFF;}
</style>
<path class="st0" d="M45,99c-1.675,0-4.167-0.283-6.526-1.635L6.526,79.046C2.744,76.877,0,72.155,0,67.818V31.182
	c0-4.336,2.744-9.058,6.526-11.227L38.473,1.635C40.833,0.283,43.325,0,45,0s4.167,0.283,6.526,1.635l31.947,18.319
	C87.254,22.122,90,26.844,90,31.182v36.637c0,4.338-2.746,9.06-6.528,11.227L51.527,97.365C49.167,98.717,46.675,99,45,99z"/>
<path class="st1" d="M58.213,49.714l4.016-3.977v13.209c0,0.871-0.174,1.692-0.52,2.462c-0.348,0.762-0.811,1.438-1.395,2.022
	c-0.582,0.575-1.257,1.041-2.019,1.379c-0.764,0.338-1.588,0.508-2.477,0.508H33.444c-0.875,0-1.705-0.169-2.488-0.508
	c-0.783-0.339-1.46-0.804-2.03-1.379c-0.569-0.584-1.023-1.261-1.363-2.022c-0.34-0.77-0.51-1.591-0.51-2.462V39.822
	c0-0.872,0.17-1.692,0.51-2.479c0.34-0.779,0.794-1.455,1.363-2.022c0.569-0.558,1.246-1.015,2.03-1.354
	c0.783-0.338,1.613-0.508,2.488-0.508h22.373c0.055,0,0.13,0.009,0.219,0.017c0.091,0.017,0.163,0.026,0.219,0.026l-3.974,3.96
	H33.444c-0.654,0-1.212,0.228-1.675,0.694c-0.467,0.465-0.698,1.024-0.698,1.667v19.124c0,0.651,0.231,1.21,0.698,1.675
	c0.463,0.457,1.021,0.694,1.675,0.694h22.373c0.652,0,1.214-0.237,1.686-0.694c0.473-0.466,0.709-1.024,0.709-1.675V49.714z
	 M60.605,42.851L47.057,56.356l-6.87,2.242l2.248-6.829l13.572-13.522L60.605,42.851z M56.423,41.692
	c0.248-0.245,0.248-0.491,0-0.727c-0.251-0.22-0.493-0.22-0.73,0L45.078,51.542c-0.248,0.254-0.248,0.49,0,0.727
	c0.085,0.11,0.202,0.169,0.354,0.169c0.138,0,0.25-0.059,0.333-0.169L56.423,41.692z M64.872,35.888
	c0.376,0.398,0.565,0.855,0.573,1.379c0.006,0.516-0.185,0.973-0.573,1.379l-1.976,1.904l-4.6-4.586l1.915-1.947
	c0.403-0.398,0.874-0.6,1.416-0.6c0.541,0,0.992,0.203,1.353,0.6l0.957,0.931L64.872,35.888L64.872,35.888z"/>
</svg>
