<?xml version="1.0" encoding="utf-8"?>
<!-- Generator: Adobe Illustrator 17.1.0, SVG Export Plug-In . SVG Version: 6.00 Build 0)  -->
<!DOCTYPE svg PUBLIC "-//W3C//DTD SVG 1.1//EN" "http://www.w3.org/Graphics/SVG/1.1/DTD/svg11.dtd">
<svg version="1.1" id="Layer_1" xmlns="http://www.w3.org/2000/svg" xmlns:xlink="http://www.w3.org/1999/xlink" x="0px" y="0px"
	 viewBox="0 0 90 99" style="enable-background:new 0 0 90 99;" xml:space="preserve">
<style type="text/css">
	.st0{fill:#8B5AA0;}
	.st1{fill:#FFFFFF;}
</style>
<path class="st0" d="M45,99c-1.675,0-4.167-0.283-6.526-1.635L6.526,79.046C2.744,76.877,0,72.155,0,67.818V31.182
	c0-4.336,2.744-9.058,6.526-11.227L38.473,1.635C40.833,0.283,43.325,0,45,0s4.167,0.283,6.526,1.635l31.947,18.319
	C87.254,22.122,90,26.844,90,31.182v36.637c0,4.338-2.746,9.06-6.528,11.227L51.527,97.365C49.167,98.717,46.675,99,45,99z"/>
<path class="st1" d="M60.511,60.008c0.624,0.969,0.673,1.942,0.144,2.923c-0.248,0.482-0.603,0.854-1.061,1.108
	c-0.457,0.258-0.943,0.385-1.456,0.385H31.871c-0.513,0-0.996-0.127-1.446-0.385c-0.452-0.254-0.809-0.626-1.072-1.108
	c-0.541-0.994-0.493-1.972,0.144-2.923l10.74-16.657v-7.59h-1.622c-0.459,0-0.836-0.156-1.136-0.465
	c-0.297-0.313-0.448-0.694-0.448-1.151c0-0.432,0.151-0.799,0.448-1.108c0.299-0.313,0.677-0.47,1.136-0.47h12.778
	c0.458,0,0.843,0.156,1.155,0.47c0.314,0.309,0.469,0.677,0.469,1.108c0,0.457-0.155,0.838-0.469,1.151
	c-0.312,0.309-0.697,0.465-1.155,0.465h-1.582v7.632L60.511,60.008L60.511,60.008z M36.867,54.491h16.276l-6.515-10.162v-8.567
	h-3.206v8.525L36.867,54.491z"/>
</svg>
