<?xml version="1.0" encoding="utf-8"?>
<!-- Generator: Adobe Illustrator 17.1.0, SVG Export Plug-In . SVG Version: 6.00 Build 0)  -->
<!DOCTYPE svg PUBLIC "-//W3C//DTD SVG 1.1//EN" "http://www.w3.org/Graphics/SVG/1.1/DTD/svg11.dtd">
<svg version="1.1" id="Layer_1" xmlns="http://www.w3.org/2000/svg" xmlns:xlink="http://www.w3.org/1999/xlink" x="0px" y="0px"
	 viewBox="0 0 420 40" style="enable-background:new 0 0 420 40;" xml:space="preserve">
<style type="text/css">
	.st0{fill:#F3F3F3;}
	.st1{fill:#FFFFFF;}
	.st2{fill:#00A19A;}
</style>
<path class="st0" d="M418.343,18.877l-7.357-12.702c-0.871-1.504-2.767-2.595-4.509-2.595H12.419h-0.896H3.976
	C1.789,3.58,0,5.369,0,7.556v27.832c0,2.187,1.789,3.976,3.976,3.976h7.547h0.896h394.058c1.742,0,3.639-1.092,4.509-2.595
	l7.357-12.702c0.543-0.938,0.657-1.929,0.657-2.595S418.886,19.815,418.343,18.877z"/>
<path class="st1" d="M418.343,16.291l-7.357-12.702c-0.871-1.504-2.767-2.595-4.509-2.595H12.419h-0.896H3.976
	C1.789,0.994,0,2.783,0,4.97v27.832c0,2.187,1.789,3.976,3.976,3.976h7.547h0.896h394.058c1.742,0,3.639-1.092,4.509-2.595
	l7.357-12.702c0.543-0.938,0.657-1.929,0.657-2.595S418.886,17.229,418.343,16.291z"/>
<path class="st2" d="M418.343,15.297l-7.357-12.702C410.115,1.091,408.219,0,406.477,0H12.419h-0.896H3.976C1.789,0,0,1.789,0,3.976
	v27.832c0,2.187,1.789,3.976,3.976,3.976h7.547h0.896h394.058c1.742,0,3.639-1.092,4.509-2.595l7.357-12.702
	c0.543-0.938,0.657-1.929,0.657-2.595S418.886,16.235,418.343,15.297z"/>
</svg>
