<?xml version="1.0" encoding="utf-8"?>
<!-- Generator: Adobe Illustrator 17.1.0, SVG Export Plug-In . SVG Version: 6.00 Build 0)  -->
<!DOCTYPE svg PUBLIC "-//W3C//DTD SVG 1.1//EN" "http://www.w3.org/Graphics/SVG/1.1/DTD/svg11.dtd">
<svg version="1.1" id="Layer_1" xmlns="http://www.w3.org/2000/svg" xmlns:xlink="http://www.w3.org/1999/xlink" x="0px" y="0px"
	 viewBox="0 0 220 40" style="enable-background:new 0 0 220 40;" xml:space="preserve">
<style type="text/css">
	.st0{fill:#F3F3F3;}
	.st1{fill:#FFFFFF;}
	.st2{fill:#00A19A;}
</style>
<path class="st0" d="M219.34,19.182l-7.391-12.907c-0.875-1.528-2.78-2.637-4.53-2.637H13.48h-0.9H3.994
	C1.797,3.638,0,5.456,0,7.679V35.96C0,38.182,1.797,40,3.994,40h8.586h0.9H207.42c1.75,0,3.655-1.109,4.53-2.637l7.391-12.907
	c0.545-0.953,0.66-1.96,0.66-2.637C220,21.143,219.886,20.135,219.34,19.182z"/>
<path class="st1" d="M219.34,16.554l-7.391-12.907c-0.875-1.528-2.78-2.637-4.53-2.637H13.48h-0.9H3.994C1.797,1.01,0,2.828,0,5.05
	v28.281c0,2.222,1.797,4.04,3.994,4.04h8.586h0.9H207.42c1.75,0,3.655-1.109,4.53-2.637l7.391-12.907
	c0.545-0.953,0.66-1.96,0.66-2.637C220,18.514,219.886,17.507,219.34,16.554z"/>
<path class="st2" d="M219.34,15.544l-7.391-12.907C211.074,1.109,209.169,0,207.42,0H13.48h-0.9H3.994C1.797,0,0,1.818,0,4.04
	v28.281c0,2.222,1.797,4.04,3.994,4.04h8.586h0.9H207.42c1.75,0,3.655-1.109,4.53-2.637l7.391-12.907
	c0.545-0.953,0.66-1.96,0.66-2.637C220,17.504,219.886,16.497,219.34,15.544z"/>
</svg>
