<?xml version="1.0" encoding="utf-8"?>
<!-- Generator: Adobe Illustrator 17.1.0, SVG Export Plug-In . SVG Version: 6.00 Build 0)  -->
<!DOCTYPE svg PUBLIC "-//W3C//DTD SVG 1.1//EN" "http://www.w3.org/Graphics/SVG/1.1/DTD/svg11.dtd">
<svg version="1.1" id="Layer_1" xmlns="http://www.w3.org/2000/svg" xmlns:xlink="http://www.w3.org/1999/xlink" x="0px" y="0px"
	 viewBox="0 0 220 40" style="enable-background:new 0 0 220 40;" xml:space="preserve">
<style type="text/css">
	.st0{fill:#F3F3F3;}
	.st1{fill:#FFFFFF;}
	.st2{fill:#8A5AA0;}
</style>
<path class="st0" d="M219.34,18.182l-7.391-12.907c-0.875-1.528-2.78-2.637-4.53-2.637H13.48h-0.9H3.994
	C1.797,2.638,0,4.456,0,6.679V34.96C0,37.182,1.797,39,3.994,39h8.586h0.9h193.94c1.75,0,3.655-1.109,4.53-2.637l7.391-12.907
	c0.545-0.953,0.66-1.96,0.66-2.637C220,20.143,219.886,19.135,219.34,18.182z"/>
<path class="st1" d="M219.34,15.554l-7.391-12.907c-0.875-1.528-2.78-2.637-4.53-2.637H13.48h-0.9H3.994C1.797,0.01,0,1.828,0,4.05
	v28.281c0,2.222,1.797,4.04,3.994,4.04h8.586h0.9h193.94c1.75,0,3.655-1.109,4.53-2.637l7.391-12.907
	c0.545-0.953,0.66-1.96,0.66-2.637C220,17.514,219.886,16.507,219.34,15.554z"/>
<path class="st2" d="M219.34,14.544l-7.391-12.907C211.074,0.109,209.169-1,207.42-1H13.48h-0.9H3.994C1.797-1,0,0.818,0,3.04
	v28.281c0,2.222,1.797,4.04,3.994,4.04h8.586h0.9h193.94c1.75,0,3.655-1.109,4.53-2.637l7.391-12.907
	c0.545-0.953,0.66-1.96,0.66-2.637C220,16.504,219.886,15.497,219.34,14.544z"/>
</svg>
