<?xml version="1.0" encoding="utf-8"?>
<!-- Generator: Adobe Illustrator 17.1.0, SVG Export Plug-In . SVG Version: 6.00 Build 0)  -->
<!DOCTYPE svg PUBLIC "-//W3C//DTD SVG 1.1//EN" "http://www.w3.org/Graphics/SVG/1.1/DTD/svg11.dtd">
<svg version="1.1" id="Layer_1" xmlns="http://www.w3.org/2000/svg" xmlns:xlink="http://www.w3.org/1999/xlink" x="0px" y="0px"
	 viewBox="0 0 175.75 70.87" enable-background="new 0 0 175.75 70.87" xml:space="preserve">
<path fill="#8B5AA0" d="M43.979,69.459c-1.167,0-2.903-0.199-4.547-1.147L17.169,55.459c-2.635-1.522-4.547-4.835-4.547-7.877
	V21.877c0-3.042,1.912-6.355,4.547-7.877L39.431,1.147C41.075,0.199,42.812,0,43.979,0s2.903,0.199,4.547,1.147L70.787,14
	c2.635,1.521,4.548,4.834,4.548,7.877v25.705c0,3.043-1.913,6.356-4.549,7.877L48.527,68.312
	C46.882,69.26,45.146,69.459,43.979,69.459z"/>
<path fill="#00A19A" d="M13.809,69.46c-0.514,0-1.279-0.087-2.002-0.505l-9.804-5.66C0.842,62.625,0,61.166,0,59.826v-11.32
	c0-1.34,0.842-2.799,2.002-3.469l9.803-5.66c0.724-0.418,1.489-0.505,2.003-0.505s1.279,0.087,2.002,0.505l9.803,5.66
	c1.16,0.67,2.003,2.129,2.003,3.469v11.32c0,1.34-0.843,2.799-2.003,3.469l-9.802,5.66C15.087,69.373,14.323,69.46,13.809,69.46z"/>
<g>
	<path fill="#8B5AA0" d="M80.365,31.648h-0.759c-1.012,0-1.843-0.795-1.843-1.807c0-1.012,0.831-1.843,1.843-1.843h0.759v-1.41
		c0-2.096,0.542-3.687,1.554-4.699c1.012-1.012,2.422-1.518,4.301-1.518c0.868,0,1.591,0.072,2.205,0.181
		c0.796,0.108,1.518,0.831,1.518,1.807c0,1.012-0.832,1.843-1.843,1.807c-0.253-0.036-0.614-0.072-0.904-0.072
		c-1.663,0-2.53,0.904-2.53,2.892v1.048h3.398c1.048,0,1.843,0.795,1.843,1.807c0,1.012-0.832,1.807-1.843,1.807h-3.326v13.338
		c0,1.193-0.976,2.169-2.205,2.169c-1.193,0-2.169-0.976-2.169-2.169V31.648z"/>
	<path fill="#8B5AA0" d="M89.906,41.48v-0.072c0-4.12,3.217-6.145,7.88-6.145c2.133,0,3.651,0.326,5.133,0.796v-0.47
		c0-2.711-1.663-4.157-4.735-4.157c-1.663,0-3.036,0.289-4.229,0.759c-0.253,0.072-0.47,0.108-0.687,0.108
		c-1.012,0-1.843-0.795-1.843-1.807c0-0.795,0.542-1.482,1.193-1.735c1.807-0.687,3.65-1.121,6.145-1.121
		c2.856,0,4.988,0.759,6.326,2.133c1.41,1.373,2.06,3.398,2.06,5.892v9.398c0,1.193-0.94,2.097-2.133,2.097
		c-1.265,0-2.133-0.868-2.133-1.843v-0.723c-1.301,1.554-3.289,2.783-6.217,2.783C93.087,47.372,89.906,45.312,89.906,41.48z
		 M102.991,40.107v-1.301c-1.12-0.434-2.603-0.759-4.338-0.759c-2.819,0-4.482,1.193-4.482,3.181V41.3
		c0,1.843,1.626,2.892,3.723,2.892C100.786,44.191,102.991,42.529,102.991,40.107z"/>
	<path fill="#8B5AA0" d="M109.532,37.54v-0.072c0-5.422,4.193-9.976,9.94-9.976c3,0,5.06,0.976,6.687,2.386
		c0.289,0.253,0.687,0.795,0.687,1.518c0,1.121-0.904,1.988-2.024,1.988c-0.542,0-1.012-0.217-1.301-0.434
		c-1.121-0.94-2.35-1.626-4.085-1.626c-3.181,0-5.53,2.747-5.53,6.073v0.072c0,3.398,2.349,6.109,5.711,6.109
		c1.735,0,3.073-0.687,4.265-1.699c0.253-0.217,0.687-0.47,1.193-0.47c1.048,0,1.879,0.868,1.879,1.916
		c0,0.578-0.217,1.048-0.614,1.373c-1.699,1.627-3.759,2.711-6.94,2.711C113.725,47.408,109.532,42.962,109.532,37.54z"/>
	<path fill="#8B5AA0" d="M130.315,41.697V31.648h-0.723c-1.048,0-1.879-0.832-1.879-1.879c0-1.048,0.832-1.88,1.879-1.88h0.723
		v-3.253c0-1.193,0.976-2.169,2.205-2.169c1.193,0,2.169,0.976,2.169,2.169v3.253h3.434c1.048,0,1.916,0.832,1.916,1.88
		c0,1.048-0.868,1.879-1.916,1.879h-3.434v9.362c0,1.699,0.868,2.386,2.35,2.386c0.506,0,0.94-0.108,1.084-0.108
		c0.976,0,1.843,0.795,1.843,1.807c0,0.796-0.542,1.446-1.157,1.699c-0.94,0.326-1.843,0.506-3,0.506
		C132.592,47.3,130.315,45.89,130.315,41.697z"/>
	<path fill="#8B5AA0" d="M141.411,37.54v-0.072c0-5.458,4.338-9.976,10.193-9.976c5.856,0,10.158,4.446,10.158,9.904v0.072
		c0,5.422-4.338,9.94-10.23,9.94C145.712,47.408,141.411,42.962,141.411,37.54z M157.388,37.54v-0.072
		c0-3.362-2.422-6.145-5.855-6.145c-3.507,0-5.747,2.747-5.747,6.073v0.072c0,3.326,2.422,6.109,5.819,6.109
		C155.147,43.577,157.388,40.83,157.388,37.54z"/>
	<path fill="#8B5AA0" d="M164.398,29.877c0-1.229,0.94-2.205,2.169-2.205s2.205,0.976,2.205,2.205v1.952
		c1.012-2.386,2.892-4.193,4.808-4.193c1.373,0,2.169,0.904,2.169,2.169c0,1.157-0.759,1.916-1.735,2.097
		c-3.109,0.542-5.241,2.928-5.241,7.446v5.639c0,1.193-0.976,2.169-2.205,2.169c-1.193,0-2.169-0.94-2.169-2.169V29.877z"/>
</g>
<g>
	<path fill="#FFFFFF" d="M32.082,34.396v-0.072c0-7.193,5.386-13.085,13.049-13.085c3.904,0,6.47,1.157,8.675,2.856
		c0.47,0.361,0.867,0.976,0.867,1.771c0,1.229-0.976,2.169-2.205,2.169c-0.615,0-1.048-0.217-1.337-0.434
		c-1.735-1.41-3.615-2.277-6.037-2.277c-4.808,0-8.35,3.976-8.35,8.928v0.072c0,4.952,3.507,8.964,8.35,8.964
		c2.675,0,4.482-0.868,6.326-2.422c0.325-0.289,0.795-0.506,1.337-0.506c1.12,0,2.096,0.94,2.096,2.061
		c0,0.687-0.325,1.229-0.723,1.59c-2.386,2.097-5.097,3.398-9.181,3.398C37.576,47.408,32.082,41.661,32.082,34.396z"/>
	<path fill="#FFFFFF" d="M56.515,37.54v-0.072c0-5.458,4.338-9.976,10.193-9.976c5.856,0,10.158,4.446,10.158,9.904v0.072
		c0,5.422-4.338,9.94-10.23,9.94C60.816,47.408,56.515,42.962,56.515,37.54z M72.491,37.54v-0.072c0-3.362-2.422-6.145-5.855-6.145
		c-3.507,0-5.748,2.747-5.748,6.073v0.072c0,3.326,2.422,6.109,5.819,6.109C70.25,43.577,72.491,40.83,72.491,37.54z"/>
</g>
</svg>
