<?xml version="1.0" encoding="utf-8"?>
<!-- Generator: Adobe Illustrator 17.1.0, SVG Export Plug-In . SVG Version: 6.00 Build 0)  -->
<!DOCTYPE svg PUBLIC "-//W3C//DTD SVG 1.1//EN" "http://www.w3.org/Graphics/SVG/1.1/DTD/svg11.dtd">
<svg version="1.1" id="Layer_1" xmlns="http://www.w3.org/2000/svg" xmlns:xlink="http://www.w3.org/1999/xlink" x="0px" y="0px"
	 viewBox="0 0 174 69" style="enable-background:new 0 0 174 69;" xml:space="preserve">
<style type="text/css">
	.Drop_x0020_Shadow{fill:none;}
	.Round_x0020_Corners_x0020_2_x0020_pt{fill:#FFFFFF;stroke:#000000;stroke-miterlimit:10;}
	.Live_x0020_Reflect_x0020_X{fill:none;}
	.Bevel_x0020_Soft{fill:url(#SVGID_1_);}
	.Dusk{fill:#FFFFFF;}
	.Foliage_GS{fill:#FFDD00;}
	.Pompadour_GS{fill-rule:evenodd;clip-rule:evenodd;fill:#44ADE2;}
	.st0{fill:#8B5BA0;}
	.st1{fill:#00A19A;}
	.st2{fill:#3E5171;}
	.st3{fill:#8B5AA0;}
	.st4{fill:#FFFFFF;}
</style>
<linearGradient id="SVGID_1_" gradientUnits="userSpaceOnUse" x1="0" y1="0" x2="0.7071" y2="0.7071">
	<stop  offset="0" style="stop-color:#DEDFE3"/>
	<stop  offset="0.1738" style="stop-color:#D8D9DD"/>
	<stop  offset="0.352" style="stop-color:#C9CACD"/>
	<stop  offset="0.5323" style="stop-color:#B4B5B8"/>
	<stop  offset="0.7139" style="stop-color:#989A9C"/>
	<stop  offset="0.8949" style="stop-color:#797C7E"/>
	<stop  offset="1" style="stop-color:#656B6C"/>
</linearGradient>
<g>
	<path class="st0" d="M43.534,0c-1.155,0-2.874,0.197-4.502,1.136L16.996,13.858c-2.608,1.506-4.501,4.786-4.501,7.798v16.983
		c0.441-0.126,0.856-0.16,1.174-0.16c0.509,0,1.266,0.087,1.982,0.5l9.704,5.603c1.149,0.663,1.983,2.107,1.983,3.434v11.205
		c0,0.488-0.113,0.992-0.313,1.467l12.008,6.932c1.627,0.939,3.346,1.136,4.501,1.136s2.874-0.197,4.502-1.136L70.07,54.898
		c2.609-1.505,4.503-4.785,4.503-7.798V21.656c0-3.013-1.894-6.292-4.502-7.798L48.035,1.136C46.408,0.197,44.689,0,43.534,0"/>
	<path class="st1" d="M12.495,38.639c-0.265,0.076-0.539,0.185-0.808,0.34l-9.704,5.603C0.834,45.245,0,46.69,0,48.016v11.205
		c0,1.326,0.834,2.771,1.982,3.434l9.705,5.603c0.717,0.414,1.473,0.5,1.982,0.5c0.509,0,1.266-0.087,1.983-0.5l9.703-5.603
		c0.726-0.419,1.327-1.15,1.67-1.967l-10.029-5.79c-2.608-1.506-4.501-4.786-4.501-7.798V38.639"/>
	<path class="st2" d="M13.669,38.479c-0.318,0-0.733,0.034-1.174,0.16V47.1c0,3.012,1.893,6.291,4.501,7.798l10.029,5.79
		c0.2-0.475,0.313-0.979,0.313-1.467V48.016c0-1.327-0.834-2.771-1.983-3.434l-9.704-5.603
		C14.935,38.566,14.178,38.479,13.669,38.479"/>
	<path class="st3" d="M79.552,31.328H78.8c-1.002,0-1.825-0.787-1.825-1.789c0-1.002,0.823-1.825,1.825-1.825h0.751v-1.396
		c0-2.075,0.536-3.65,1.539-4.651c1.002-1.002,2.397-1.503,4.258-1.503c0.859,0,1.575,0.072,2.183,0.179
		c0.787,0.107,1.503,0.823,1.503,1.789c0,1.002-0.823,1.825-1.825,1.789c-0.251-0.036-0.608-0.071-0.895-0.071
		c-1.646,0-2.505,0.894-2.505,2.863v1.038h3.364c1.037,0,1.825,0.787,1.825,1.789c0,1.002-0.823,1.789-1.825,1.789h-3.292v13.203
		c0,1.181-0.966,2.147-2.183,2.147c-1.181,0-2.147-0.966-2.147-2.147V31.328z"/>
	<path class="st3" d="M88.997,41.061v-0.072c0-4.079,3.185-6.083,7.8-6.083c2.111,0,3.614,0.322,5.081,0.787v-0.465
		c0-2.684-1.646-4.115-4.687-4.115c-1.646,0-3.005,0.286-4.186,0.751c-0.25,0.071-0.465,0.107-0.68,0.107
		c-1.002,0-1.825-0.787-1.825-1.789c0-0.787,0.537-1.467,1.181-1.718c1.789-0.68,3.614-1.109,6.083-1.109
		c2.827,0,4.938,0.751,6.262,2.111c1.396,1.36,2.039,3.363,2.039,5.832v9.303c0,1.181-0.93,2.075-2.111,2.075
		c-1.252,0-2.111-0.859-2.111-1.825v-0.716c-1.288,1.539-3.256,2.755-6.154,2.755C92.145,46.893,88.997,44.854,88.997,41.061z
		 M101.95,39.701v-1.288c-1.109-0.429-2.576-0.751-4.294-0.751c-2.791,0-4.437,1.181-4.437,3.149v0.072
		c0,1.825,1.61,2.863,3.685,2.863C99.767,43.745,101.95,42.099,101.95,39.701z"/>
	<path class="st3" d="M108.424,37.161v-0.072c0-5.367,4.15-9.875,9.84-9.875c2.97,0,5.009,0.966,6.619,2.362
		c0.286,0.25,0.68,0.787,0.68,1.503c0,1.109-0.894,1.968-2.004,1.968c-0.536,0-1.002-0.215-1.288-0.43
		c-1.109-0.93-2.326-1.61-4.044-1.61c-3.149,0-5.474,2.719-5.474,6.011v0.071c0,3.364,2.326,6.047,5.653,6.047
		c1.718,0,3.041-0.68,4.222-1.682c0.251-0.215,0.68-0.465,1.181-0.465c1.038,0,1.86,0.859,1.86,1.896
		c0,0.573-0.215,1.038-0.608,1.36c-1.682,1.61-3.721,2.684-6.87,2.684C112.575,46.929,108.424,42.528,108.424,37.161z"/>
	<path class="st3" d="M128.997,41.276v-9.947h-0.716c-1.037,0-1.86-0.823-1.86-1.86c0-1.038,0.823-1.861,1.86-1.861h0.716v-3.22
		c0-1.181,0.966-2.147,2.183-2.147c1.181,0,2.147,0.966,2.147,2.147v3.22h3.399c1.038,0,1.896,0.823,1.896,1.861
		c0,1.037-0.859,1.86-1.896,1.86h-3.399v9.267c0,1.682,0.859,2.362,2.326,2.362c0.501,0,0.93-0.107,1.073-0.107
		c0.966,0,1.825,0.787,1.825,1.789c0,0.787-0.537,1.432-1.145,1.682c-0.93,0.322-1.825,0.501-2.97,0.501
		C131.251,46.822,128.997,45.426,128.997,41.276z"/>
	<path class="st3" d="M139.981,37.161v-0.072c0-5.403,4.294-9.875,10.09-9.875c5.797,0,10.055,4.401,10.055,9.804v0.071
		c0,5.368-4.294,9.84-10.126,9.84C144.239,46.929,139.981,42.528,139.981,37.161z M155.796,37.161v-0.072
		c0-3.328-2.397-6.083-5.796-6.083c-3.471,0-5.689,2.719-5.689,6.011v0.071c0,3.292,2.397,6.047,5.761,6.047
		C153.578,43.136,155.796,40.417,155.796,37.161z"/>
	<path class="st3" d="M162.736,29.575c0-1.217,0.93-2.183,2.147-2.183s2.183,0.966,2.183,2.183v1.932
		c1.002-2.362,2.863-4.151,4.759-4.151c1.36,0,2.147,0.895,2.147,2.147c0,1.145-0.751,1.896-1.717,2.075
		c-3.077,0.536-5.188,2.898-5.188,7.371v5.582c0,1.181-0.966,2.147-2.183,2.147c-1.181,0-2.147-0.93-2.147-2.147V29.575z"/>
	<path class="st4" d="M31.757,34.048v-0.072c0-7.121,5.331-12.953,12.917-12.953c3.864,0,6.405,1.145,8.588,2.827
		c0.465,0.358,0.858,0.966,0.858,1.753c0,1.217-0.966,2.147-2.182,2.147c-0.609,0-1.038-0.215-1.324-0.43
		c-1.718-1.396-3.578-2.254-5.976-2.254c-4.759,0-8.266,3.936-8.266,8.838v0.072c0,4.902,3.471,8.874,8.266,8.874
		c2.648,0,4.437-0.859,6.262-2.397c0.322-0.286,0.787-0.501,1.324-0.501c1.109,0,2.075,0.93,2.075,2.04
		c0,0.68-0.322,1.217-0.715,1.574c-2.362,2.075-5.045,3.363-9.088,3.363C37.196,46.929,31.757,41.24,31.757,34.048z"/>
	<path class="st4" d="M55.943,37.161v-0.072c0-5.403,4.294-9.875,10.09-9.875c5.797,0,10.055,4.401,10.055,9.804v0.071
		c0,5.368-4.294,9.84-10.126,9.84C60.201,46.929,55.943,42.528,55.943,37.161z M71.758,37.161v-0.072
		c0-3.328-2.397-6.083-5.796-6.083c-3.471,0-5.689,2.719-5.689,6.011v0.071c0,3.292,2.397,6.047,5.761,6.047
		C69.54,43.136,71.758,40.417,71.758,37.161z"/>
</g>
</svg>
