<?xml version="1.0" encoding="utf-8"?>
<!-- Generator: Adobe Illustrator 17.1.0, SVG Export Plug-In . SVG Version: 6.00 Build 0)  -->
<!DOCTYPE svg PUBLIC "-//W3C//DTD SVG 1.1//EN" "http://www.w3.org/Graphics/SVG/1.1/DTD/svg11.dtd">
<svg version="1.1" id="Layer_1" xmlns="http://www.w3.org/2000/svg" xmlns:xlink="http://www.w3.org/1999/xlink" x="0px" y="0px"
	 viewBox="0 0 90 99" style="enable-background:new 0 0 90 99;" xml:space="preserve">
<style type="text/css">
	.st0{fill:#8B5AA0;}
	.st1{fill:#FFFFFF;}
</style>
<path class="st0" d="M45,99c-1.675,0-4.167-0.283-6.526-1.635L6.526,79.046C2.744,76.877,0,72.155,0,67.818V31.182
	c0-4.336,2.744-9.058,6.526-11.227L38.473,1.635C40.833,0.283,43.325,0,45,0s4.167,0.283,6.526,1.635l31.947,18.319
	C87.254,22.122,90,26.844,90,31.182v36.637c0,4.338-2.746,9.06-6.528,11.227L51.527,97.365C49.167,98.717,46.675,99,45,99z"/>
<g>
	<path class="st1" d="M44.972,55.895c0.686,0,1.342-0.092,1.967-0.29c0.625-0.19,1.226-0.442,1.799-0.747
		c0.576-0.305,1.132-0.655,1.669-1.044c0.537-0.389,1.061-0.793,1.575-1.204c1.562-1.242,3.136-2.462,4.723-3.651
		c1.587-1.189,3.187-2.385,4.799-3.582c0.125-0.099,0.253-0.19,0.385-0.29c0.132-0.091,0.26-0.198,0.384-0.328v16.911
		c0,0.579-0.208,1.09-0.627,1.509c-0.419,0.427-0.922,0.64-1.511,0.64H29.881c-0.587,0-1.094-0.213-1.518-0.64
		c-0.424-0.419-0.637-0.929-0.637-1.509V44.76c0.124,0.13,0.252,0.236,0.384,0.328c0.13,0.099,0.258,0.191,0.385,0.29
		c1.612,1.197,3.212,2.393,4.799,3.582c1.587,1.189,3.161,2.408,4.723,3.651c0.488,0.389,1,0.777,1.537,1.166
		c0.537,0.396,1.094,0.747,1.669,1.067c0.573,0.313,1.177,0.572,1.809,0.762C43.663,55.803,44.309,55.895,44.972,55.895z
		 M44.972,51.62c-0.388,0-0.807-0.107-1.256-0.328c-0.45-0.213-0.891-0.48-1.321-0.785c-0.432-0.305-0.853-0.625-1.266-0.96
		c-0.413-0.335-0.774-0.617-1.088-0.838c-1.512-1.151-3.008-2.279-4.489-3.399c-1.48-1.128-2.99-2.263-4.527-3.422
		c-0.287-0.221-0.621-0.526-1.002-0.907c-0.383-0.381-0.738-0.8-1.069-1.258c-0.331-0.465-0.612-0.93-0.843-1.402
		c-0.231-0.473-0.348-0.907-0.348-1.288c0-0.511,0.226-0.96,0.675-1.341c0.451-0.373,0.931-0.564,1.444-0.564h30.255
		c0.513,0,0.991,0.19,1.434,0.564c0.444,0.381,0.666,0.831,0.666,1.341c0,0.381-0.115,0.815-0.346,1.288
		c-0.231,0.472-0.513,0.937-0.843,1.402c-0.331,0.457-0.688,0.876-1.069,1.258c-0.381,0.381-0.715,0.686-1.002,0.907
		c-1.537,1.143-3.048,2.279-4.527,3.407c-1.482,1.128-2.979,2.263-4.489,3.414c-0.314,0.221-0.673,0.503-1.078,0.838
		c-0.407,0.335-0.828,0.656-1.266,0.96c-0.438,0.305-0.881,0.572-1.331,0.785c-0.449,0.221-0.862,0.328-1.237,0.328h-0.038H44.972z"
		/>
</g>
</svg>
