<?xml version="1.0" encoding="utf-8"?>
<!-- Generator: Adobe Illustrator 17.1.0, SVG Export Plug-In . SVG Version: 6.00 Build 0)  -->
<!DOCTYPE svg PUBLIC "-//W3C//DTD SVG 1.1//EN" "http://www.w3.org/Graphics/SVG/1.1/DTD/svg11.dtd">
<svg version="1.1" id="Layer_1" xmlns="http://www.w3.org/2000/svg" xmlns:xlink="http://www.w3.org/1999/xlink" x="0px" y="0px"
	 viewBox="0 0 90 99" style="enable-background:new 0 0 90 99;" xml:space="preserve">
<style type="text/css">
	.st0{fill:#11BBE6;}
	.st1{fill:#FFFFFF;}
</style>
<path class="st0" d="M45,99c-1.675,0-4.167-0.283-6.526-1.635L6.526,79.046C2.744,76.877,0,72.155,0,67.818V31.182
	c0-4.336,2.744-9.058,6.526-11.227L38.473,1.635C40.833,0.283,43.325,0,45,0s4.167,0.283,6.526,1.635l31.947,18.319
	C87.254,22.122,90,26.844,90,31.182v36.637c0,4.338-2.746,9.06-6.528,11.227L51.527,97.365C49.167,98.717,46.675,99,45,99z"/>
<path class="st1" d="M63.078,38.007c-1.331,0.586-2.76,0.984-4.26,1.162c1.533-0.914,2.709-2.362,3.263-4.091
	c-1.434,0.848-3.021,1.462-4.712,1.795c-1.354-1.438-3.282-2.333-5.415-2.333c-4.096,0-7.418,3.308-7.418,7.389
	c0,0.581,0.066,1.143,0.19,1.687c-6.165-0.309-11.631-3.252-15.29-7.722c-0.637,1.092-1.004,2.362-1.004,3.716
	c0,2.563,1.309,4.826,3.299,6.152c-1.213-0.037-2.358-0.37-3.36-0.923c0,0.028,0,0.061,0,0.089c0,3.584,2.558,6.569,5.951,7.249
	c-0.623,0.169-1.277,0.262-1.954,0.262c-0.477,0-0.943-0.047-1.397-0.136c0.945,2.938,3.684,5.075,6.931,5.135
	c-2.539,1.982-5.737,3.163-9.214,3.163c-0.597,0-1.187-0.033-1.768-0.103c3.282,2.099,7.18,3.322,11.37,3.322
	c13.644,0,21.106-11.264,21.106-21.034c0-0.319-0.007-0.637-0.021-0.956C60.828,40.79,62.083,39.487,63.078,38.007z"/>
</svg>
