<?xml version="1.0" encoding="utf-8"?>
<!-- Generator: Adobe Illustrator 17.1.0, SVG Export Plug-In . SVG Version: 6.00 Build 0)  -->
<!DOCTYPE svg PUBLIC "-//W3C//DTD SVG 1.1//EN" "http://www.w3.org/Graphics/SVG/1.1/DTD/svg11.dtd">
<svg version="1.1" id="Layer_1" xmlns="http://www.w3.org/2000/svg" xmlns:xlink="http://www.w3.org/1999/xlink" x="0px" y="0px"
	 viewBox="0 0 36 40" style="enable-background:new 0 0 36 40;" xml:space="preserve">
<style type="text/css">
	.st0{fill:#8B5AA0;}
</style>
<g>
	<path class="st0" d="M17.996,40c-0.67,0-1.667-0.114-2.61-0.661L2.606,31.938c-1.513-0.876-2.61-2.784-2.61-4.536V12.599
		c0-1.752,1.098-3.66,2.61-4.536l12.779-7.402C16.329,0.114,17.326,0,17.996,0s1.667,0.114,2.61,0.661l12.779,7.402
		c1.513,0.876,2.611,2.784,2.611,4.536v14.803c0,1.753-1.098,3.661-2.611,4.536l-12.778,7.402C19.663,39.886,18.666,40,17.996,40z"
		/>
</g>
</svg>
